<svg xmlns="http://www.w3.org/2000/svg" width="120" height="150" viewBox="0 0 120 150"><rect x="22" y="18" width="76" height="120" rx="38" fill="#19C3E6" stroke="#0B2A5B" stroke-width="5"/><path d="M24 100 Q60 112 96 100V121 Q60 155 24 121Z" fill="#0B2A5B"/><path d="M60 107V135" stroke="#FFC629" stroke-width="5"/><path d="M105 90V20Q105 12 98 12H91" fill="none" stroke="#0B2A5B" stroke-width="10"/><path d="M105 89V21" stroke="#FFC629" stroke-width="5"/><ellipse cx="45" cy="65" rx="14" ry="17" fill="white" stroke="#0B2A5B" stroke-width="4"/><ellipse cx="77" cy="65" rx="14" ry="17" fill="white" stroke="#0B2A5B" stroke-width="4"/><circle cx="45" cy="67" r="6" fill="#0B2A5B"/><circle cx="77" cy="67" r="6" fill="#0B2A5B"/><g fill="none" stroke="#0B2A5B" stroke-width="4.5" stroke-linecap="round" stroke-linejoin="round"><ellipse cx="61" cy="97" rx="10" ry="12" fill="white"/><path d="M32 40Q45 32 56 40M67 40Q79 32 90 40"/></g><rect x="25" y="43" width="71" height="43" rx="15" fill="none" stroke="#FFC629" stroke-width="5"/><path d="M20 53H27M95 53H101" stroke="#0B2A5B" stroke-width="6"/></svg>